<svg xmlns="http://www.w3.org/2000/svg" viewBox="0 0 127.15 138.05"><defs><style>.cls-1,.cls-3{fill:#465c66;}.cls-2{fill:#0de0ac;}.cls-3{font-size:16.52px;font-family:Montserrat-Bold, Montserrat Bold;font-weight:700;letter-spacing:0.01em;}</style></defs><g id="Layer_2" data-name="Layer 2"><g id="OBJECTS"><path class="cls-1" d="M89.17,36.13l-.6-8.45h4.25l.58,8.15a2.12,2.12,0,0,1-4.23.3Z"/><path class="cls-1" d="M33.51,35.83l.56-7.89a2.3,2.3,0,0,1,0-.26h4.26a5.51,5.51,0,0,0-.06.57l-.57,7.88a2.12,2.12,0,1,1-4.22-.3Z"/><path class="cls-1" d="M106,112.83H20.89c-5,0-8.88-5.29-8.24-11.26l6.91-65.15c.53-5,4.06-8.74,8.25-8.74h4.28s0,.08,0,.12l-.57,7.89a4.12,4.12,0,0,0,8.22.59l.57-7.89c0-.24,0-.47.07-.71H86.55a.17.17,0,0,1,0,.07l.62,8.53a4.12,4.12,0,1,0,8.21-.59l-.57-8H99.1c4.19,0,7.72,3.74,8.25,8.74l6.91,65.15C114.9,107.54,111,112.83,106,112.83Z"/><path class="cls-1" d="M93.4,35.83a2.12,2.12,0,0,1-4.23.3l-.6-8.45v-.07A25.26,25.26,0,0,0,64.64,4.27l-1.17,0c-13,0-23.89,10.36-25.11,23.44a5.51,5.51,0,0,0-.06.57l-.57,7.88a2.12,2.12,0,1,1-4.22-.3l.56-7.89a2.3,2.3,0,0,1,0-.26C35.24,13.35,46.34,1.47,60.68.13,61.61,0,62.54,0,63.45,0A29.53,29.53,0,0,1,92.79,27.3l0,.38Z"/><path class="cls-2" d="M63.46,101a29.78,29.78,0,1,1,21.9-9.61A29.85,29.85,0,0,1,63.46,101Zm0-56a26.22,26.22,0,1,0,19.28,8.46A26.31,26.31,0,0,0,63.46,45.05Z"/><rect class="cls-2" x="61.67" y="43.27" width="3.56" height="55.97"/><path class="cls-2" d="M63.46,101c-4.93,0-9.57-3.65-12.75-10a45.23,45.23,0,0,1-4.19-19.75,45.23,45.23,0,0,1,4.19-19.75c3.18-6.36,7.82-10,12.75-10s9.56,3.66,12.74,10a45.23,45.23,0,0,1,4.19,19.75A45.23,45.23,0,0,1,76.2,91C73,97.38,68.38,101,63.46,101Zm0-56c-3.53,0-7,2.94-9.56,8.05a41.61,41.61,0,0,0-3.82,18.16A41.61,41.61,0,0,0,53.9,89.42c2.55,5.11,6,8,9.56,8s7-2.94,9.55-8a41.61,41.61,0,0,0,3.82-18.16A41.61,41.61,0,0,0,73,53.1C70.46,48,67,45.05,63.46,45.05Z"/><rect class="cls-2" x="35.47" y="69.48" width="55.97" height="3.56"/><path class="cls-2" d="M63.46,88.19A45.06,45.06,0,0,1,43.71,84c-6.37-3.17-10-7.81-10-12.74s3.65-9.57,10-12.74a45.2,45.2,0,0,1,19.75-4.19A45.21,45.21,0,0,1,83.2,58.52c6.37,3.17,10,7.82,10,12.74S89.57,80.83,83.2,84A45.07,45.07,0,0,1,63.46,88.19Zm0-30.3A41.58,41.58,0,0,0,45.3,61.7c-5.12,2.55-8,6-8,9.56s2.93,7,8,9.56a41.58,41.58,0,0,0,18.16,3.81,41.57,41.57,0,0,0,18.15-3.81c5.12-2.55,8-6,8-9.56s-2.93-7-8-9.56A41.57,41.57,0,0,0,63.46,57.89Z"/><text class="cls-3" transform="translate(0 133.92) scale(0.95 1)">ONLINE SHOPPING</text></g></g></svg>