<svg xmlns="http://www.w3.org/2000/svg" viewBox="0 0 133.15 121.68"><defs><style>.cls-1,.cls-3{fill:#0de0ac;}.cls-2,.cls-6{fill:#465c66;}.cls-3{font-size:18.96px;}.cls-3,.cls-6{font-family:Montserrat-Bold, Montserrat Bold;font-weight:700;}.cls-4{letter-spacing:-0.01em;}.cls-5{letter-spacing:-0.03em;}.cls-6{font-size:9.84px;letter-spacing:0.24em;}</style></defs><g id="Layer_2" data-name="Layer 2"><g id="OBJECTS"><path class="cls-1" d="M119.61,10.71H33.23c-2.9,0-5.4,2.32-6.19,5.59a4.24,4.24,0,0,0,.07,2.15l9.35,32.49a41.08,41.08,0,0,1,1.07,5.52,7.33,7.33,0,0,0,3.85,5.48l0,0A9.87,9.87,0,0,0,44.85,63a11.63,11.63,0,0,0,1.34.08,14.6,14.6,0,0,0,2.66-.26,27.31,27.31,0,0,0,8.65-3.49,64.54,64.54,0,0,0,8.37-5.87c4.95-4,9.61-8.63,14.37-13.17l-7.77-2,12.17-5.27,1.42-.61,6.31-2.73-2.59,6.35-.59,1.44-5,12.29L82,42.05c-4,5.16-7.85,10.45-12.34,15.45a72.48,72.48,0,0,1-8.07,7.76A44.8,44.8,0,0,1,57.88,68h51.57c3.34,0,6-3,6.41-6.81a45.31,45.31,0,0,1,1.06-6.32l8.87-36.49a4.39,4.39,0,0,0,0-2.07c-.78-3.28-3.28-5.62-6.2-5.62Z"/><path class="cls-2" d="M119.61,13.71a2.92,2.92,0,0,1,2.12,1,4.33,4.33,0,0,1,.9,3.95l-9,36.91a47.54,47.54,0,0,0-.79,5.31,5.33,5.33,0,0,1-1.27,3A2.92,2.92,0,0,1,109.45,65h-43c1.8-1.65,3.6-3.47,5.44-5.52C75.11,56,78,52.29,80.76,48.67l.5,1.83a3.14,3.14,0,0,0,2.16,2.22,3.44,3.44,0,0,0,.77.09A3,3,0,0,0,87,50.94l5-12.29.59-1.44L95.1,31A3.09,3.09,0,0,0,95,28.32a3,3,0,0,0-2.65-1.59,3,3,0,0,0-1.19.24l-6.31,2.74-1.43.61-12,5.21A3.13,3.13,0,0,0,69.49,38a3,3,0,0,0,2.24,3.25l2.52.64C70.81,45.18,67.49,48.3,64,51.15a60.6,60.6,0,0,1-8,5.61,24.61,24.61,0,0,1-7.66,3.13,12.25,12.25,0,0,1-2.14.21,7.66,7.66,0,0,1-1-.06,6.71,6.71,0,0,1-2.41-.74l-.06,0a4.33,4.33,0,0,1-2.27-3.43A46.54,46.54,0,0,0,38.73,48L30.3,18.7a4.16,4.16,0,0,1,.83-4,2.91,2.91,0,0,1,2.1-1h86.38m0-3H33.23c-2.9,0-5.4,2.32-6.19,5.59a4.24,4.24,0,0,0,.07,2.15l9.35,32.49a41.08,41.08,0,0,1,1.07,5.52,7.33,7.33,0,0,0,3.85,5.48l0,0A9.87,9.87,0,0,0,44.85,63a11.63,11.63,0,0,0,1.34.08,14.6,14.6,0,0,0,2.66-.26,27.31,27.31,0,0,0,8.65-3.49,64.54,64.54,0,0,0,8.37-5.87c4.95-4,9.61-8.63,14.37-13.17l-7.77-2,12.17-5.27,1.42-.61,6.31-2.73-2.59,6.35-.59,1.44-5,12.29L82,42.05c-4,5.16-7.85,10.45-12.34,15.45a72.48,72.48,0,0,1-8.07,7.76A44.8,44.8,0,0,1,57.88,68h51.57c3.34,0,6-3,6.41-6.81a45.31,45.31,0,0,1,1.06-6.32l8.87-36.49a4.39,4.39,0,0,0,0-2.07c-.78-3.28-3.28-5.62-6.2-5.62Z"/><path class="cls-2" d="M119.61,13.71a2.92,2.92,0,0,1,2.12,1,4.33,4.33,0,0,1,.9,3.95l-9,36.91a47.54,47.54,0,0,0-.79,5.31,5.33,5.33,0,0,1-1.27,3A2.92,2.92,0,0,1,109.45,65h-43c1.8-1.65,3.6-3.47,5.44-5.52C75.11,56,78,52.29,80.76,48.67l.5,1.83a3.14,3.14,0,0,0,2.16,2.22,3.44,3.44,0,0,0,.77.09A3,3,0,0,0,87,50.94l5-12.29.59-1.44L95.1,31A3.09,3.09,0,0,0,95,28.32a3,3,0,0,0-2.65-1.59,3,3,0,0,0-1.19.24l-6.31,2.74-1.43.61-12,5.21A3.13,3.13,0,0,0,69.49,38a3,3,0,0,0,2.24,3.25l2.52.64C70.81,45.18,67.49,48.3,64,51.15a60.6,60.6,0,0,1-8,5.61,24.61,24.61,0,0,1-7.66,3.13,12.25,12.25,0,0,1-2.14.21,7.66,7.66,0,0,1-1-.06,6.71,6.71,0,0,1-2.41-.74l-.06,0a4.33,4.33,0,0,1-2.27-3.43A46.54,46.54,0,0,0,38.73,48L30.3,18.7a4.16,4.16,0,0,1,.83-4,2.91,2.91,0,0,1,2.1-1h86.38m0-3H33.23c-2.9,0-5.4,2.32-6.19,5.59a4.24,4.24,0,0,0,.07,2.15l9.35,32.49a41.08,41.08,0,0,1,1.07,5.52,7.33,7.33,0,0,0,3.85,5.48l0,0A9.87,9.87,0,0,0,44.85,63a11.63,11.63,0,0,0,1.34.08,14.6,14.6,0,0,0,2.66-.26,27.31,27.31,0,0,0,8.65-3.49,64.54,64.54,0,0,0,8.37-5.87c4.95-4,9.61-8.63,14.37-13.17l-7.77-2,12.17-5.27,1.42-.61,6.31-2.73-2.59,6.35-.59,1.44-5,12.29L82,42.05c-4,5.16-7.85,10.45-12.34,15.45a72.48,72.48,0,0,1-8.07,7.76A44.8,44.8,0,0,1,57.88,68h51.57c3.34,0,6-3,6.41-6.81a45.31,45.31,0,0,1,1.06-6.32l8.87-36.49a4.39,4.39,0,0,0,0-2.07c-.78-3.28-3.28-5.62-6.2-5.62Z"/><path class="cls-2" d="M118.13,73.29H34.73a1.53,1.53,0,1,1,0-3h83.4a1.52,1.52,0,1,1,0,3Z"/><path class="cls-2" d="M33.1,71.91,12.27,3.69a1.66,1.66,0,0,1,1-2.14,1.66,1.66,0,0,1,1.93,1.32L36,71.09a1.52,1.52,0,1,1-2.88.82Z"/><path class="cls-2" d="M44.47,78.75a2.85,2.85,0,1,1-2.85,2.85,2.86,2.86,0,0,1,2.85-2.85m0-3a5.85,5.85,0,1,0,5.85,5.85,5.85,5.85,0,0,0-5.85-5.85Z"/><path class="cls-2" d="M108.39,78.75a2.85,2.85,0,1,1-2.85,2.85,2.86,2.86,0,0,1,2.85-2.85m0-3a5.85,5.85,0,1,0,5.85,5.85,5.85,5.85,0,0,0-5.85-5.85Z"/><path class="cls-2" d="M13.82,4.35h-.16L1.34,3a1.5,1.5,0,0,1,.32-3L14,1.35a1.5,1.5,0,0,1-.16,3Z"/><text class="cls-3" transform="translate(20.28 105.4)">HEN<tspan class="cls-4" x="34.16" y="0">R</tspan><tspan x="44.15" y="0">Y S</tspan><tspan class="cls-5" x="67.77" y="0">T</tspan><tspan x="76.68" y="0">ORE</tspan></text><text class="cls-6" transform="translate(20.41 119.22)">ONLINE SHOPPING</text></g></g></svg>